<svg width="32" height="32" viewBox="0 0 32 32" fill="none" xmlns="http://www.w3.org/2000/svg">
<path d="M5.56488 21.6244L5.56484 21.6242C5.46748 21.1153 5.55019 20.5876 5.79913 20.1336C6.04813 19.6795 6.44804 19.3272 6.92987 19.1403L6.93038 19.1401L7.57093 18.8925L5.56488 21.6244ZM5.56488 21.6244L6.11255 24.4805L6.11255 24.4805C6.21649 25.0225 6.4717 25.5237 6.84884 25.9246C7.22604 26.3256 7.70948 26.6096 8.24236 26.7419L8.24243 26.7419L18.5574 29.3023C19.8122 29.6138 21.1375 29.4109 22.2445 28.7386C23.3512 28.0665 24.1494 26.9802 24.4676 25.7175L24.4676 25.7174L26.3811 18.1184L26.3811 18.1183C26.4885 17.6916 26.4981 17.2457 26.4093 16.8147C26.3205 16.3836 26.1355 15.9784 25.868 15.6299C25.6005 15.2815 25.2575 14.999 24.8649 14.8045C24.4722 14.61 24.0405 14.5087 23.6028 14.5088M5.56488 21.6244L23.6028 14.5088M17.6813 5.26153C17.6129 5.53306 17.5412 5.80372 17.4663 6.07345L17.6813 5.26153ZM17.6813 5.26153C17.9382 4.27297 18.064 4.05527 18.0802 4.05527C19.2539 4.05527 20.118 5.40255 20.118 7.75071C20.118 8.96107 19.6772 10.9478 18.7874 13.6588M17.6813 5.26153L12.1726 15.0938M12.1726 15.0938L12.1726 15.0938L16.0495 8.9516L16.0502 8.95048C16.1452 8.80089 16.2191 8.63452 16.2686 8.46029L16.2691 8.45861C16.6096 7.27509 16.8471 6.43468 16.9845 5.93975L16.9845 5.93953C17.0584 5.67375 17.129 5.40704 17.1964 5.13948L17.1973 5.13575C17.3281 4.63282 17.4284 4.31399 17.5018 4.11482C17.5382 4.01617 17.5709 3.93874 17.6007 3.87955C17.6148 3.85157 17.6341 3.81592 17.6587 3.7807C17.6699 3.76468 17.6925 3.73351 17.7261 3.70067C17.7426 3.68449 17.7733 3.65643 17.8172 3.62956C17.854 3.60697 17.9479 3.55527 18.0802 3.55527C18.8902 3.55527 19.5452 4.03031 19.9726 4.77304C20.3937 5.50478 20.618 6.52422 20.618 7.75071C20.618 9.04779 20.1532 11.1008 19.2625 13.8145M12.1726 15.0938C11.079 16.8268 9.46588 18.1578 7.57135 18.8923L12.1726 15.0938ZM19.2625 13.8145C19.2625 13.8145 19.2625 13.8146 19.2625 13.8147L18.7874 13.6588M19.2625 13.8145C19.2626 13.8144 19.2626 13.8144 19.2626 13.8143L18.7874 13.6588M19.2625 13.8145C19.2364 13.8943 19.2294 13.9794 19.242 14.0627C19.2546 14.1461 19.2866 14.2248 19.3347 14.2924C19.3829 14.3601 19.4458 14.4145 19.5178 14.4519C19.5898 14.4893 19.6692 14.5087 19.7495 14.5088M18.7874 13.6588C18.7369 13.813 18.7233 13.9771 18.7476 14.1377C18.772 14.2983 18.8336 14.4507 18.9275 14.5825C19.0213 14.7143 19.1447 14.8216 19.2875 14.8957C19.4303 14.9698 19.5884 15.0086 19.7489 15.0088M19.7495 14.5088H19.7489V15.0088M19.7495 14.5088L19.7489 15.0088M19.7495 14.5088H23.6027L23.6028 15.0088M19.7489 15.0088H23.6028M23.6028 15.0088V14.5088M23.6028 15.0088C23.9633 15.0087 24.3191 15.0921 24.6429 15.2525C24.9668 15.413 25.2502 15.6462 25.4714 15.9344C25.6927 16.2226 25.846 16.5582 25.9196 16.9156C25.9932 17.2729 25.9852 17.6426 25.8962 17.9963L23.6028 14.5088M15.998 5.65177L15.9981 5.65109C16.0523 5.45563 16.1034 5.25981 16.2046 4.86343C16.4541 3.90398 16.6772 3.31616 16.9585 2.96298C17.2004 2.65923 17.5089 2.50012 18.0815 2.50012C19.162 2.50012 20.0315 3.00597 20.6494 3.90483C21.2773 4.81834 21.6478 6.14826 21.6478 7.75071C21.6478 8.92055 21.3284 10.5878 20.6614 12.8113L20.4683 13.455H21.1403H23.6041H23.6043C24.1967 13.4548 24.7816 13.5918 25.3144 13.8556C25.8471 14.1195 26.3139 14.5035 26.6786 14.9786C27.0433 15.4538 27.2963 16.0075 27.4178 16.5976C27.5393 17.1877 27.526 17.7982 27.3789 18.3822L27.8637 18.5043L27.3789 18.3822L25.4654 25.9812C25.0789 27.5162 24.1099 28.8327 22.7715 29.6459C21.4332 30.4589 19.833 30.7037 18.3182 30.328L8.00329 27.7676L8.00325 27.7676C7.28133 27.5885 6.62439 27.2034 6.11058 26.6572C5.59675 26.1109 5.24767 25.4262 5.10553 24.684C5.10552 24.684 5.10552 24.6839 5.10551 24.6839L4.55922 21.8279L4.55918 21.8277C4.41439 21.0723 4.5373 20.2896 4.90564 19.6176C5.27391 18.9457 5.86344 18.4282 6.56938 18.1544L7.20885 17.9067L7.2089 17.9067C8.90012 17.2512 10.3379 16.0641 11.3117 14.5212L11.3118 14.5211L15.1853 8.38006C15.2281 8.31295 15.2611 8.24017 15.2835 8.16394L15.2843 8.16115C15.6224 6.98341 15.8608 6.14391 15.998 5.65177Z" fill="#5E5E75" stroke="#5E5E75"/>
</svg>
